<svg xmlns="http://www.w3.org/2000/svg" width="980" height="954" viewBox="0 0 980 954">
  <defs>
    <style>
      .cls-1, .cls-2 {
        fill: none;
        stroke-width: 5px;
      }

      .cls-1 {
        stroke: #2e2e2e;
      }

      .cls-2 {
        stroke: #2e2e2e;
        fill-rule: evenodd;
      }
    </style>
  </defs>
  <circle id="椭圆_1" data-name="椭圆 1" class="cls-1" cx="490.25" cy="475.375" r="373.406"/>
  <path id="形状_2" data-name="形状 2" class="cls-2" d="M507.239,717.264h58.7V595.526s-17.613-115.017,128.27-128.259c21.281,0,41.308-2.174,41.308-2.174s-123.724-16.112-182.383,26.881c7.395-5.419-45.157,26.562-45.157,104.127C507.976,626.8,507.239,725,507.239,717.264Z"/>
  <path id="形状_1" data-name="形状 1" class="cls-2" d="M748.56,273.791s-149.449,1.794-263.062,0c-55.194,2.606-108.4,3.227-163.451,42.978C275.5,352.9,246.923,401.237,235.48,462.919S250.328,617.249,316,669.48c27.607,21.958,91.341,52.339,167.326,49.958,0.856-3.366,0-60.433,0-71.739-65.066,1.734-117.114-25.639-145.663-65.216-25.427-35.251-31.4-80.587-23.914-117.39C346.192,352.541,437.461,343.36,485.5,345.529c56.246-.567,183.336,2.817,241.321-45.651C745.952,281.5,748.56,273.791,748.56,273.791Z"/>
</svg>
