<svg xmlns="http://www.w3.org/2000/svg" xmlns:xlink="http://www.w3.org/1999/xlink" width="33" height="33" viewBox="0 0 33 33" fill="none">
<path d="M3.4375 13.0625L29.5625 13.0625L29.5625 28.1875C29.5625 28.9469 28.9469 29.5625 28.1875 29.5625L4.8125 29.5625C4.05311 29.5625 3.4375 28.9469 3.4375 28.1875L3.4375 13.0625Z" stroke="rgba(235, 235, 235, 1)" stroke-width="1.5" stroke-linejoin="round"  >
</path>
<path d="M3.4375 6.875C3.4375 6.11561 4.05311 5.5 4.8125 5.5L28.1875 5.5C28.9469 5.5 29.5625 6.11561 29.5625 6.875L29.5625 13.0625L3.4375 13.0625L3.4375 6.875Z" stroke="rgba(235, 235, 235, 1)" stroke-width="1.5" stroke-linejoin="round"  >
</path>
<path    stroke="rgba(235, 235, 235, 1)" stroke-width="1.5" stroke-linejoin="round" stroke-linecap="round"  d="M11 21.3125L15.125 25.4375L23.375 17.1875">
</path>
<path    stroke="rgba(235, 235, 235, 1)" stroke-width="1.5"  stroke-linecap="round"  d="M11 3.4375L11 8.9375">
</path>
<path    stroke="rgba(235, 235, 235, 1)" stroke-width="1.5"  stroke-linecap="round"  d="M22 3.4375L22 8.9375">
</path>
</svg>
