<svg width="864" height="864" viewBox="0 0 864 864" fill="none" xmlns="http://www.w3.org/2000/svg">
<circle cx="432.003" cy="432.003" r="431.503" stroke="white"/>
<circle cx="433.171" cy="432.003" r="401.605" stroke="white" stroke-width="2" stroke-linecap="round" stroke-linejoin="round" stroke-dasharray="1 20 10 20"/>
<circle cx="433.172" cy="433.183" r="365.388" stroke="white"/>
<circle cx="431.8" cy="66.2622" r="26.113" fill="black" stroke="white"/>
<circle cx="769.253" cy="291.941" r="26.113" fill="black" stroke="white"/>
<circle cx="97.5403" cy="291.941" r="26.113" fill="black" stroke="white"/>
<rect x="427.731" y="59" width="7.89179" height="15.7836" fill="white"/>
<rect x="430.362" y="52.4233" width="2.6306" height="28.9366" fill="white"/>
<rect x="421.155" y="65.5767" width="21.0448" height="2.6306" fill="white"/>
<rect x="427.731" y="65.5767" width="7.89179" height="2.6306" fill="black"/>
<rect x="430.362" y="59" width="2.6306" height="15.7836" fill="black"/>
<rect x="88.2539" y="290.754" width="7.89179" height="15.7836" transform="rotate(-58.2042 88.2539 290.754)" fill="white"/>
<rect x="84.0503" y="285.053" width="2.6306" height="28.9366" transform="rotate(-58.2042 84.0503 285.053)" fill="white"/>
<rect x="90.3784" y="299.808" width="21.0448" height="2.6306" transform="rotate(-58.2042 90.3784 299.808)" fill="white"/>
<rect x="93.8433" y="294.219" width="7.89179" height="2.6306" transform="rotate(-58.2042 93.8433 294.219)" fill="black"/>
<rect x="89.6396" y="288.518" width="2.6306" height="15.7836" transform="rotate(-58.2042 89.6396 288.518)" fill="black"/>
<rect width="7.89179" height="15.7836" transform="matrix(-0.526893 -0.849931 -0.849931 0.526893 778.394 290.754)" fill="white"/>
<rect width="2.6306" height="28.9366" transform="matrix(-0.526893 -0.849931 -0.849931 0.526893 782.598 285.053)" fill="white"/>
<rect width="21.0448" height="2.6306" transform="matrix(-0.526893 -0.849931 -0.849931 0.526893 776.27 299.809)" fill="white"/>
<rect width="7.89179" height="2.6306" transform="matrix(-0.526893 -0.849931 -0.849931 0.526893 772.805 294.219)" fill="black"/>
<rect width="2.6306" height="15.7836" transform="matrix(-0.526893 -0.849931 -0.849931 0.526893 777.008 288.518)" fill="black"/>
<path d="M202.966 218V208.2H206.956C208.001 208.2 208.916 208.41 209.7 208.83C210.493 209.241 211.109 209.815 211.548 210.552C211.987 211.289 212.206 212.139 212.206 213.1C212.206 214.061 211.987 214.911 211.548 215.648C211.109 216.385 210.493 216.964 209.7 217.384C208.916 217.795 208.001 218 206.956 218H202.966ZM204.002 217.104H206.9C207.768 217.104 208.519 216.936 209.154 216.6C209.798 216.255 210.297 215.783 210.652 215.186C211.007 214.579 211.184 213.884 211.184 213.1C211.184 212.307 211.007 211.611 210.652 211.014C210.297 210.417 209.798 209.95 209.154 209.614C208.519 209.269 207.768 209.096 206.9 209.096H204.002V217.104ZM214.323 218V210.65H215.317V218H214.323ZM214.827 209.026C214.621 209.026 214.449 208.956 214.309 208.816C214.169 208.676 214.099 208.508 214.099 208.312C214.099 208.116 214.169 207.953 214.309 207.822C214.449 207.682 214.621 207.612 214.827 207.612C215.032 207.612 215.205 207.677 215.345 207.808C215.485 207.939 215.555 208.102 215.555 208.298C215.555 208.503 215.485 208.676 215.345 208.816C215.214 208.956 215.041 209.026 214.827 209.026ZM220.056 218.07C219.45 218.07 218.876 217.986 218.334 217.818C217.793 217.641 217.368 217.421 217.06 217.16L217.508 216.376C217.807 216.6 218.19 216.796 218.656 216.964C219.123 217.123 219.613 217.202 220.126 217.202C220.826 217.202 221.33 217.095 221.638 216.88C221.946 216.656 222.1 216.362 222.1 215.998C222.1 215.727 222.012 215.517 221.834 215.368C221.666 215.209 221.442 215.093 221.162 215.018C220.882 214.934 220.57 214.864 220.224 214.808C219.879 214.752 219.534 214.687 219.188 214.612C218.852 214.537 218.544 214.43 218.264 214.29C217.984 214.141 217.756 213.94 217.578 213.688C217.41 213.436 217.326 213.1 217.326 212.68C217.326 212.279 217.438 211.919 217.662 211.602C217.886 211.285 218.213 211.037 218.642 210.86C219.081 210.673 219.613 210.58 220.238 210.58C220.714 210.58 221.19 210.645 221.666 210.776C222.142 210.897 222.534 211.061 222.842 211.266L222.408 212.064C222.082 211.84 221.732 211.681 221.358 211.588C220.985 211.485 220.612 211.434 220.238 211.434C219.576 211.434 219.086 211.551 218.768 211.784C218.46 212.008 218.306 212.297 218.306 212.652C218.306 212.932 218.39 213.151 218.558 213.31C218.736 213.469 218.964 213.595 219.244 213.688C219.534 213.772 219.846 213.842 220.182 213.898C220.528 213.954 220.868 214.024 221.204 214.108C221.55 214.183 221.862 214.29 222.142 214.43C222.432 214.561 222.66 214.752 222.828 215.004C223.006 215.247 223.094 215.569 223.094 215.97C223.094 216.399 222.973 216.773 222.73 217.09C222.497 217.398 222.152 217.641 221.694 217.818C221.246 217.986 220.7 218.07 220.056 218.07ZM227.97 218.07C227.242 218.07 226.589 217.911 226.01 217.594C225.441 217.267 224.993 216.824 224.666 216.264C224.34 215.695 224.176 215.046 224.176 214.318C224.176 213.581 224.34 212.932 224.666 212.372C224.993 211.812 225.441 211.373 226.01 211.056C226.589 210.739 227.242 210.58 227.97 210.58C228.596 210.58 229.16 210.701 229.664 210.944C230.168 211.187 230.565 211.551 230.854 212.036L230.112 212.54C229.86 212.167 229.548 211.891 229.174 211.714C228.801 211.537 228.395 211.448 227.956 211.448C227.434 211.448 226.962 211.569 226.542 211.812C226.122 212.045 225.791 212.377 225.548 212.806C225.306 213.235 225.184 213.739 225.184 214.318C225.184 214.897 225.306 215.401 225.548 215.83C225.791 216.259 226.122 216.595 226.542 216.838C226.962 217.071 227.434 217.188 227.956 217.188C228.395 217.188 228.801 217.099 229.174 216.922C229.548 216.745 229.86 216.474 230.112 216.11L230.854 216.614C230.565 217.09 230.168 217.454 229.664 217.706C229.16 217.949 228.596 218.07 227.97 218.07ZM235.68 218.07C234.971 218.07 234.331 217.911 233.762 217.594C233.202 217.267 232.759 216.824 232.432 216.264C232.105 215.695 231.942 215.046 231.942 214.318C231.942 213.581 232.105 212.932 232.432 212.372C232.759 211.812 233.202 211.373 233.762 211.056C234.322 210.739 234.961 210.58 235.68 210.58C236.408 210.58 237.052 210.739 237.612 211.056C238.181 211.373 238.625 211.812 238.942 212.372C239.269 212.932 239.432 213.581 239.432 214.318C239.432 215.046 239.269 215.695 238.942 216.264C238.625 216.824 238.181 217.267 237.612 217.594C237.043 217.911 236.399 218.07 235.68 218.07ZM235.68 217.188C236.212 217.188 236.683 217.071 237.094 216.838C237.505 216.595 237.827 216.259 238.06 215.83C238.303 215.391 238.424 214.887 238.424 214.318C238.424 213.739 238.303 213.235 238.06 212.806C237.827 212.377 237.505 212.045 237.094 211.812C236.683 211.569 236.217 211.448 235.694 211.448C235.171 211.448 234.705 211.569 234.294 211.812C233.883 212.045 233.557 212.377 233.314 212.806C233.071 213.235 232.95 213.739 232.95 214.318C232.95 214.887 233.071 215.391 233.314 215.83C233.557 216.259 233.883 216.595 234.294 216.838C234.705 217.071 235.167 217.188 235.68 217.188ZM243.146 218L239.884 210.65H240.92L243.916 217.468H243.426L246.464 210.65H247.444L244.168 218H243.146ZM251.761 218.07C250.996 218.07 250.324 217.911 249.745 217.594C249.166 217.267 248.714 216.824 248.387 216.264C248.06 215.695 247.897 215.046 247.897 214.318C247.897 213.59 248.051 212.946 248.359 212.386C248.676 211.826 249.106 211.387 249.647 211.07C250.198 210.743 250.814 210.58 251.495 210.58C252.186 210.58 252.797 210.739 253.329 211.056C253.87 211.364 254.295 211.803 254.603 212.372C254.911 212.932 255.065 213.581 255.065 214.318C255.065 214.365 255.06 214.416 255.051 214.472C255.051 214.519 255.051 214.57 255.051 214.626H248.653V213.884H254.519L254.127 214.178C254.127 213.646 254.01 213.175 253.777 212.764C253.553 212.344 253.245 212.017 252.853 211.784C252.461 211.551 252.008 211.434 251.495 211.434C250.991 211.434 250.538 211.551 250.137 211.784C249.736 212.017 249.423 212.344 249.199 212.764C248.975 213.184 248.863 213.665 248.863 214.206V214.36C248.863 214.92 248.984 215.415 249.227 215.844C249.479 216.264 249.824 216.595 250.263 216.838C250.711 217.071 251.22 217.188 251.789 217.188C252.237 217.188 252.652 217.109 253.035 216.95C253.427 216.791 253.763 216.549 254.043 216.222L254.603 216.866C254.276 217.258 253.866 217.557 253.371 217.762C252.886 217.967 252.349 218.07 251.761 218.07ZM257.088 218V210.65H258.04V212.652L257.942 212.302C258.147 211.742 258.493 211.317 258.978 211.028C259.463 210.729 260.065 210.58 260.784 210.58V211.546C260.747 211.546 260.709 211.546 260.672 211.546C260.635 211.537 260.597 211.532 260.56 211.532C259.785 211.532 259.179 211.77 258.74 212.246C258.301 212.713 258.082 213.38 258.082 214.248V218H257.088ZM268.919 218V214.36L269.157 215.004L264.999 208.2H266.105L269.759 214.178H269.171L272.825 208.2H273.861L269.703 215.004L269.941 214.36V218H268.919ZM277.42 218.07C276.711 218.07 276.071 217.911 275.502 217.594C274.942 217.267 274.499 216.824 274.172 216.264C273.845 215.695 273.682 215.046 273.682 214.318C273.682 213.581 273.845 212.932 274.172 212.372C274.499 211.812 274.942 211.373 275.502 211.056C276.062 210.739 276.701 210.58 277.42 210.58C278.148 210.58 278.792 210.739 279.352 211.056C279.921 211.373 280.365 211.812 280.682 212.372C281.009 212.932 281.172 213.581 281.172 214.318C281.172 215.046 281.009 215.695 280.682 216.264C280.365 216.824 279.921 217.267 279.352 217.594C278.783 217.911 278.139 218.07 277.42 218.07ZM277.42 217.188C277.952 217.188 278.423 217.071 278.834 216.838C279.245 216.595 279.567 216.259 279.8 215.83C280.043 215.391 280.164 214.887 280.164 214.318C280.164 213.739 280.043 213.235 279.8 212.806C279.567 212.377 279.245 212.045 278.834 211.812C278.423 211.569 277.957 211.448 277.434 211.448C276.911 211.448 276.445 211.569 276.034 211.812C275.623 212.045 275.297 212.377 275.054 212.806C274.811 213.235 274.69 213.739 274.69 214.318C274.69 214.887 274.811 215.391 275.054 215.83C275.297 216.259 275.623 216.595 276.034 216.838C276.445 217.071 276.907 217.188 277.42 217.188ZM286.239 218.07C285.614 218.07 285.068 217.953 284.601 217.72C284.135 217.487 283.771 217.137 283.509 216.67C283.257 216.203 283.131 215.62 283.131 214.92V210.65H284.125V214.808C284.125 215.592 284.317 216.185 284.699 216.586C285.091 216.978 285.637 217.174 286.337 217.174C286.851 217.174 287.294 217.071 287.667 216.866C288.05 216.651 288.339 216.343 288.535 215.942C288.741 215.541 288.843 215.06 288.843 214.5V210.65H289.837V218H288.885V215.984L289.039 216.348C288.806 216.889 288.442 217.314 287.947 217.622C287.462 217.921 286.893 218.07 286.239 218.07ZM292.608 218V210.65H293.56V212.652L293.462 212.302C293.667 211.742 294.012 211.317 294.498 211.028C294.983 210.729 295.585 210.58 296.304 210.58V211.546C296.266 211.546 296.229 211.546 296.192 211.546C296.154 211.537 296.117 211.532 296.08 211.532C295.305 211.532 294.698 211.77 294.26 212.246C293.821 212.713 293.602 213.38 293.602 214.248V218H292.608ZM306.399 218.084C305.652 218.084 304.962 217.963 304.327 217.72C303.702 217.468 303.156 217.118 302.689 216.67C302.232 216.222 301.872 215.695 301.611 215.088C301.359 214.481 301.233 213.819 301.233 213.1C301.233 212.381 301.359 211.719 301.611 211.112C301.872 210.505 302.236 209.978 302.703 209.53C303.17 209.082 303.716 208.737 304.341 208.494C304.976 208.242 305.666 208.116 306.413 208.116C307.16 208.116 307.841 208.233 308.457 208.466C309.082 208.699 309.614 209.054 310.053 209.53L309.409 210.188C308.998 209.777 308.546 209.483 308.051 209.306C307.556 209.129 307.024 209.04 306.455 209.04C305.848 209.04 305.288 209.143 304.775 209.348C304.271 209.544 303.828 209.829 303.445 210.202C303.072 210.566 302.778 210.995 302.563 211.49C302.358 211.975 302.255 212.512 302.255 213.1C302.255 213.679 302.358 214.215 302.563 214.71C302.778 215.205 303.072 215.639 303.445 216.012C303.828 216.376 304.271 216.661 304.775 216.866C305.288 217.062 305.844 217.16 306.441 217.16C307.001 217.16 307.528 217.076 308.023 216.908C308.527 216.74 308.989 216.455 309.409 216.054L309.997 216.838C309.53 217.249 308.984 217.561 308.359 217.776C307.734 217.981 307.08 218.084 306.399 218.084ZM309.003 216.712V213.1H309.997V216.838L309.003 216.712ZM317.213 218.084C316.476 218.084 315.79 217.963 315.155 217.72C314.53 217.468 313.984 217.118 313.517 216.67C313.06 216.213 312.7 215.685 312.439 215.088C312.187 214.481 312.061 213.819 312.061 213.1C312.061 212.381 312.187 211.723 312.439 211.126C312.7 210.519 313.06 209.992 313.517 209.544C313.984 209.087 314.53 208.737 315.155 208.494C315.78 208.242 316.466 208.116 317.213 208.116C317.95 208.116 318.632 208.242 319.257 208.494C319.882 208.737 320.424 209.082 320.881 209.53C321.348 209.978 321.707 210.505 321.959 211.112C322.22 211.719 322.351 212.381 322.351 213.1C322.351 213.819 322.22 214.481 321.959 215.088C321.707 215.695 321.348 216.222 320.881 216.67C320.424 217.118 319.882 217.468 319.257 217.72C318.632 217.963 317.95 218.084 317.213 218.084ZM317.213 217.16C317.801 217.16 318.342 217.062 318.837 216.866C319.341 216.661 319.775 216.376 320.139 216.012C320.512 215.639 320.802 215.209 321.007 214.724C321.212 214.229 321.315 213.688 321.315 213.1C321.315 212.512 321.212 211.975 321.007 211.49C320.802 210.995 320.512 210.566 320.139 210.202C319.775 209.829 319.341 209.544 318.837 209.348C318.342 209.143 317.801 209.04 317.213 209.04C316.625 209.04 316.079 209.143 315.575 209.348C315.071 209.544 314.632 209.829 314.259 210.202C313.895 210.566 313.606 210.995 313.391 211.49C313.186 211.975 313.083 212.512 313.083 213.1C313.083 213.679 313.186 214.215 313.391 214.71C313.606 215.205 313.895 215.639 314.259 216.012C314.632 216.376 315.071 216.661 315.575 216.866C316.079 217.062 316.625 217.16 317.213 217.16ZM324.673 218V208.2H328.663C329.708 208.2 330.623 208.41 331.407 208.83C332.2 209.241 332.816 209.815 333.255 210.552C333.694 211.289 333.913 212.139 333.913 213.1C333.913 214.061 333.694 214.911 333.255 215.648C332.816 216.385 332.2 216.964 331.407 217.384C330.623 217.795 329.708 218 328.663 218H324.673ZM325.709 217.104H328.607C329.475 217.104 330.226 216.936 330.861 216.6C331.505 216.255 332.004 215.783 332.359 215.186C332.714 214.579 332.891 213.884 332.891 213.1C332.891 212.307 332.714 211.611 332.359 211.014C332.004 210.417 331.505 209.95 330.861 209.614C330.226 209.269 329.475 209.096 328.607 209.096H325.709V217.104ZM343.408 208.2H344.43V218H343.408V208.2ZM337.276 218H336.24V208.2H337.276V218ZM343.506 213.478H337.164V212.568H343.506V213.478ZM351.912 218.084C351.175 218.084 350.489 217.963 349.854 217.72C349.229 217.468 348.683 217.118 348.216 216.67C347.759 216.213 347.4 215.685 347.138 215.088C346.886 214.481 346.76 213.819 346.76 213.1C346.76 212.381 346.886 211.723 347.138 211.126C347.4 210.519 347.759 209.992 348.216 209.544C348.683 209.087 349.229 208.737 349.854 208.494C350.48 208.242 351.166 208.116 351.912 208.116C352.65 208.116 353.331 208.242 353.956 208.494C354.582 208.737 355.123 209.082 355.58 209.53C356.047 209.978 356.406 210.505 356.658 211.112C356.92 211.719 357.05 212.381 357.05 213.1C357.05 213.819 356.92 214.481 356.658 215.088C356.406 215.695 356.047 216.222 355.58 216.67C355.123 217.118 354.582 217.468 353.956 217.72C353.331 217.963 352.65 218.084 351.912 218.084ZM351.912 217.16C352.5 217.16 353.042 217.062 353.536 216.866C354.04 216.661 354.474 216.376 354.838 216.012C355.212 215.639 355.501 215.209 355.706 214.724C355.912 214.229 356.014 213.688 356.014 213.1C356.014 212.512 355.912 211.975 355.706 211.49C355.501 210.995 355.212 210.566 354.838 210.202C354.474 209.829 354.04 209.544 353.536 209.348C353.042 209.143 352.5 209.04 351.912 209.04C351.324 209.04 350.778 209.143 350.274 209.348C349.77 209.544 349.332 209.829 348.958 210.202C348.594 210.566 348.305 210.995 348.09 211.49C347.885 211.975 347.782 212.512 347.782 213.1C347.782 213.679 347.885 214.215 348.09 214.71C348.305 215.205 348.594 215.639 348.958 216.012C349.332 216.376 349.77 216.661 350.274 216.866C350.778 217.062 351.324 217.16 351.912 217.16ZM363.656 218.084C362.919 218.084 362.233 217.963 361.598 217.72C360.973 217.468 360.427 217.118 359.96 216.67C359.503 216.213 359.144 215.685 358.882 215.088C358.63 214.481 358.504 213.819 358.504 213.1C358.504 212.381 358.63 211.723 358.882 211.126C359.144 210.519 359.503 209.992 359.96 209.544C360.427 209.087 360.973 208.737 361.598 208.494C362.224 208.242 362.91 208.116 363.656 208.116C364.394 208.116 365.075 208.242 365.7 208.494C366.326 208.737 366.867 209.082 367.324 209.53C367.791 209.978 368.15 210.505 368.402 211.112C368.664 211.719 368.794 212.381 368.794 213.1C368.794 213.819 368.664 214.481 368.402 215.088C368.15 215.695 367.791 216.222 367.324 216.67C366.867 217.118 366.326 217.468 365.7 217.72C365.075 217.963 364.394 218.084 363.656 218.084ZM363.656 217.16C364.244 217.16 364.786 217.062 365.28 216.866C365.784 216.661 366.218 216.376 366.582 216.012C366.956 215.639 367.245 215.209 367.45 214.724C367.656 214.229 367.758 213.688 367.758 213.1C367.758 212.512 367.656 211.975 367.45 211.49C367.245 210.995 366.956 210.566 366.582 210.202C366.218 209.829 365.784 209.544 365.28 209.348C364.786 209.143 364.244 209.04 363.656 209.04C363.068 209.04 362.522 209.143 362.018 209.348C361.514 209.544 361.076 209.829 360.702 210.202C360.338 210.566 360.049 210.995 359.834 211.49C359.629 211.975 359.526 212.512 359.526 213.1C359.526 213.679 359.629 214.215 359.834 214.71C360.049 215.205 360.338 215.639 360.702 216.012C361.076 216.376 361.514 216.661 362.018 216.866C362.522 217.062 363.068 217.16 363.656 217.16ZM371.117 218V208.2H375.107C376.152 208.2 377.067 208.41 377.851 208.83C378.644 209.241 379.26 209.815 379.699 210.552C380.137 211.289 380.357 212.139 380.357 213.1C380.357 214.061 380.137 214.911 379.699 215.648C379.26 216.385 378.644 216.964 377.851 217.384C377.067 217.795 376.152 218 375.107 218H371.117ZM372.153 217.104H375.051C375.919 217.104 376.67 216.936 377.305 216.6C377.949 216.255 378.448 215.783 378.803 215.186C379.157 214.579 379.335 213.884 379.335 213.1C379.335 212.307 379.157 211.611 378.803 211.014C378.448 210.417 377.949 209.95 377.305 209.614C376.67 209.269 375.919 209.096 375.051 209.096H372.153V217.104ZM390.743 218V216.376L390.701 216.11V213.394C390.701 212.769 390.524 212.288 390.169 211.952C389.824 211.616 389.306 211.448 388.615 211.448C388.139 211.448 387.686 211.527 387.257 211.686C386.828 211.845 386.464 212.055 386.165 212.316L385.717 211.574C386.09 211.257 386.538 211.014 387.061 210.846C387.584 210.669 388.134 210.58 388.713 210.58C389.665 210.58 390.398 210.818 390.911 211.294C391.434 211.761 391.695 212.475 391.695 213.436V218H390.743ZM388.209 218.07C387.658 218.07 387.178 217.981 386.767 217.804C386.366 217.617 386.058 217.365 385.843 217.048C385.628 216.721 385.521 216.348 385.521 215.928C385.521 215.545 385.61 215.2 385.787 214.892C385.974 214.575 386.272 214.323 386.683 214.136C387.103 213.94 387.663 213.842 388.363 213.842H390.897V214.584H388.391C387.682 214.584 387.187 214.71 386.907 214.962C386.636 215.214 386.501 215.527 386.501 215.9C386.501 216.32 386.664 216.656 386.991 216.908C387.318 217.16 387.775 217.286 388.363 217.286C388.923 217.286 389.404 217.16 389.805 216.908C390.216 216.647 390.514 216.273 390.701 215.788L390.925 216.474C390.738 216.959 390.412 217.347 389.945 217.636C389.488 217.925 388.909 218.07 388.209 218.07ZM398.147 210.58C398.744 210.58 399.267 210.697 399.715 210.93C400.172 211.154 400.527 211.499 400.779 211.966C401.04 212.433 401.171 213.021 401.171 213.73V218H400.177V213.828C400.177 213.053 399.981 212.47 399.589 212.078C399.206 211.677 398.665 211.476 397.965 211.476C397.442 211.476 396.985 211.583 396.593 211.798C396.21 212.003 395.911 212.307 395.697 212.708C395.491 213.1 395.389 213.576 395.389 214.136V218H394.395V210.65H395.347V212.666L395.193 212.288C395.426 211.756 395.799 211.341 396.313 211.042C396.826 210.734 397.437 210.58 398.147 210.58ZM406.782 218.07C406.082 218.07 405.452 217.911 404.892 217.594C404.341 217.277 403.907 216.838 403.59 216.278C403.272 215.709 403.114 215.055 403.114 214.318C403.114 213.571 403.272 212.918 403.59 212.358C403.907 211.798 404.341 211.364 404.892 211.056C405.452 210.739 406.082 210.58 406.782 210.58C407.426 210.58 408 210.725 408.504 211.014C409.017 211.303 409.423 211.728 409.722 212.288C410.03 212.839 410.184 213.515 410.184 214.318C410.184 215.111 410.034 215.788 409.736 216.348C409.437 216.908 409.031 217.337 408.518 217.636C408.014 217.925 407.435 218.07 406.782 218.07ZM406.852 217.188C407.374 217.188 407.841 217.071 408.252 216.838C408.672 216.595 408.998 216.259 409.232 215.83C409.474 215.391 409.596 214.887 409.596 214.318C409.596 213.739 409.474 213.235 409.232 212.806C408.998 212.377 408.672 212.045 408.252 211.812C407.841 211.569 407.374 211.448 406.852 211.448C406.338 211.448 405.876 211.569 405.466 211.812C405.055 212.045 404.728 212.377 404.486 212.806C404.243 213.235 404.122 213.739 404.122 214.318C404.122 214.887 404.243 215.391 404.486 215.83C404.728 216.259 405.055 216.595 405.466 216.838C405.876 217.071 406.338 217.188 406.852 217.188ZM409.624 218V215.788L409.722 214.304L409.582 212.82V207.612H410.576V218H409.624ZM424.386 208.2H425.408V218H424.386V208.2ZM418.254 218H417.218V208.2H418.254V218ZM424.484 213.478H418.142V212.568H424.484V213.478ZM431.519 218.07C430.753 218.07 430.081 217.911 429.503 217.594C428.924 217.267 428.471 216.824 428.145 216.264C427.818 215.695 427.655 215.046 427.655 214.318C427.655 213.59 427.809 212.946 428.117 212.386C428.434 211.826 428.863 211.387 429.405 211.07C429.955 210.743 430.571 210.58 431.253 210.58C431.943 210.58 432.555 210.739 433.087 211.056C433.628 211.364 434.053 211.803 434.361 212.372C434.669 212.932 434.823 213.581 434.823 214.318C434.823 214.365 434.818 214.416 434.809 214.472C434.809 214.519 434.809 214.57 434.809 214.626H428.411V213.884H434.277L433.885 214.178C433.885 213.646 433.768 213.175 433.535 212.764C433.311 212.344 433.003 212.017 432.611 211.784C432.219 211.551 431.766 211.434 431.253 211.434C430.749 211.434 430.296 211.551 429.895 211.784C429.493 212.017 429.181 212.344 428.957 212.764C428.733 213.184 428.621 213.665 428.621 214.206V214.36C428.621 214.92 428.742 215.415 428.985 215.844C429.237 216.264 429.582 216.595 430.021 216.838C430.469 217.071 430.977 217.188 431.547 217.188C431.995 217.188 432.41 217.109 432.793 216.95C433.185 216.791 433.521 216.549 433.801 216.222L434.361 216.866C434.034 217.258 433.623 217.557 433.129 217.762C432.643 217.967 432.107 218.07 431.519 218.07ZM436.846 218V207.612H437.84V218H436.846ZM444.4 218.07C443.765 218.07 443.191 217.925 442.678 217.636C442.164 217.337 441.754 216.913 441.446 216.362C441.147 215.802 440.998 215.121 440.998 214.318C440.998 213.515 441.147 212.839 441.446 212.288C441.744 211.728 442.15 211.303 442.664 211.014C443.177 210.725 443.756 210.58 444.4 210.58C445.1 210.58 445.725 210.739 446.276 211.056C446.836 211.364 447.274 211.803 447.592 212.372C447.909 212.932 448.068 213.581 448.068 214.318C448.068 215.065 447.909 215.718 447.592 216.278C447.274 216.838 446.836 217.277 446.276 217.594C445.725 217.911 445.1 218.07 444.4 218.07ZM440.606 220.716V210.65H441.558V212.862L441.46 214.332L441.6 215.816V220.716H440.606ZM444.33 217.188C444.852 217.188 445.319 217.071 445.73 216.838C446.14 216.595 446.467 216.259 446.71 215.83C446.952 215.391 447.074 214.887 447.074 214.318C447.074 213.749 446.952 213.249 446.71 212.82C446.467 212.391 446.14 212.055 445.73 211.812C445.319 211.569 444.852 211.448 444.33 211.448C443.807 211.448 443.336 211.569 442.916 211.812C442.505 212.055 442.178 212.391 441.936 212.82C441.702 213.249 441.586 213.749 441.586 214.318C441.586 214.887 441.702 215.391 441.936 215.83C442.178 216.259 442.505 216.595 442.916 216.838C443.336 217.071 443.807 217.188 444.33 217.188ZM452.4 218L456.88 208.2H457.902L462.382 218H461.29L457.174 208.802H457.594L453.478 218H452.4ZM454.164 215.382L454.472 214.542H460.17L460.478 215.382H454.164ZM463.793 218V207.612H464.787V218H463.793ZM471.427 218V208.2H475.655C476.747 208.2 477.592 208.419 478.189 208.858C478.796 209.297 479.099 209.917 479.099 210.72C479.099 211.252 478.973 211.7 478.721 212.064C478.478 212.428 478.142 212.703 477.713 212.89C477.293 213.077 476.831 213.17 476.327 213.17L476.565 212.834C477.19 212.834 477.727 212.932 478.175 213.128C478.632 213.315 478.987 213.599 479.239 213.982C479.491 214.355 479.617 214.822 479.617 215.382C479.617 216.213 479.309 216.857 478.693 217.314C478.086 217.771 477.167 218 475.935 218H471.427ZM472.463 217.146H475.921C476.78 217.146 477.438 217.001 477.895 216.712C478.352 216.413 478.581 215.942 478.581 215.298C478.581 214.663 478.352 214.201 477.895 213.912C477.438 213.613 476.78 213.464 475.921 213.464H472.351V212.61H475.585C476.369 212.61 476.976 212.461 477.405 212.162C477.844 211.863 478.063 211.42 478.063 210.832C478.063 210.235 477.844 209.791 477.405 209.502C476.976 209.203 476.369 209.054 475.585 209.054H472.463V217.146ZM484.894 218.07C484.128 218.07 483.456 217.911 482.878 217.594C482.299 217.267 481.846 216.824 481.52 216.264C481.193 215.695 481.03 215.046 481.03 214.318C481.03 213.59 481.184 212.946 481.492 212.386C481.809 211.826 482.238 211.387 482.78 211.07C483.33 210.743 483.946 210.58 484.628 210.58C485.318 210.58 485.93 210.739 486.462 211.056C487.003 211.364 487.428 211.803 487.736 212.372C488.044 212.932 488.198 213.581 488.198 214.318C488.198 214.365 488.193 214.416 488.184 214.472C488.184 214.519 488.184 214.57 488.184 214.626H481.786V213.884H487.652L487.26 214.178C487.26 213.646 487.143 213.175 486.91 212.764C486.686 212.344 486.378 212.017 485.986 211.784C485.594 211.551 485.141 211.434 484.628 211.434C484.124 211.434 483.671 211.551 483.27 211.784C482.868 212.017 482.556 212.344 482.332 212.764C482.108 213.184 481.996 213.665 481.996 214.206V214.36C481.996 214.92 482.117 215.415 482.36 215.844C482.612 216.264 482.957 216.595 483.396 216.838C483.844 217.071 484.352 217.188 484.922 217.188C485.37 217.188 485.785 217.109 486.168 216.95C486.56 216.791 486.896 216.549 487.176 216.222L487.736 216.866C487.409 217.258 486.998 217.557 486.504 217.762C486.018 217.967 485.482 218.07 484.894 218.07ZM492.545 218.07C491.854 218.07 491.322 217.883 490.949 217.51C490.576 217.137 490.389 216.609 490.389 215.928V209.026H491.383V215.872C491.383 216.301 491.49 216.633 491.705 216.866C491.929 217.099 492.246 217.216 492.657 217.216C493.096 217.216 493.46 217.09 493.749 216.838L494.099 217.552C493.903 217.729 493.665 217.86 493.385 217.944C493.114 218.028 492.834 218.07 492.545 218.07ZM489.073 211.476V210.65H493.623V211.476H489.073ZM498.041 218.07C497.35 218.07 496.818 217.883 496.445 217.51C496.072 217.137 495.885 216.609 495.885 215.928V209.026H496.879V215.872C496.879 216.301 496.986 216.633 497.201 216.866C497.425 217.099 497.742 217.216 498.153 217.216C498.592 217.216 498.956 217.09 499.245 216.838L499.595 217.552C499.399 217.729 499.161 217.86 498.881 217.944C498.61 218.028 498.33 218.07 498.041 218.07ZM494.569 211.476V210.65H499.119V211.476H494.569ZM504.267 218.07C503.501 218.07 502.829 217.911 502.251 217.594C501.672 217.267 501.219 216.824 500.893 216.264C500.566 215.695 500.403 215.046 500.403 214.318C500.403 213.59 500.557 212.946 500.865 212.386C501.182 211.826 501.611 211.387 502.153 211.07C502.703 210.743 503.319 210.58 504.001 210.58C504.691 210.58 505.303 210.739 505.835 211.056C506.376 211.364 506.801 211.803 507.109 212.372C507.417 212.932 507.571 213.581 507.571 214.318C507.571 214.365 507.566 214.416 507.557 214.472C507.557 214.519 507.557 214.57 507.557 214.626H501.159V213.884H507.025L506.633 214.178C506.633 213.646 506.516 213.175 506.283 212.764C506.059 212.344 505.751 212.017 505.359 211.784C504.967 211.551 504.514 211.434 504.001 211.434C503.497 211.434 503.044 211.551 502.643 211.784C502.241 212.017 501.929 212.344 501.705 212.764C501.481 213.184 501.369 213.665 501.369 214.206V214.36C501.369 214.92 501.49 215.415 501.733 215.844C501.985 216.264 502.33 216.595 502.769 216.838C503.217 217.071 503.725 217.188 504.295 217.188C504.743 217.188 505.158 217.109 505.541 216.95C505.933 216.791 506.269 216.549 506.549 216.222L507.109 216.866C506.782 217.258 506.371 217.557 505.877 217.762C505.391 217.967 504.855 218.07 504.267 218.07ZM509.594 218V210.65H510.546V212.652L510.448 212.302C510.653 211.742 510.999 211.317 511.484 211.028C511.969 210.729 512.571 210.58 513.29 210.58V211.546C513.253 211.546 513.215 211.546 513.178 211.546C513.141 211.537 513.103 211.532 513.066 211.532C512.291 211.532 511.685 211.77 511.246 212.246C510.807 212.713 510.588 213.38 510.588 214.248V218H509.594ZM523.035 218.084C521.785 218.084 520.8 217.725 520.081 217.006C519.363 216.287 519.003 215.223 519.003 213.814V208.2H520.039V213.772C520.039 214.929 520.301 215.783 520.823 216.334C521.346 216.885 522.083 217.16 523.035 217.16C523.997 217.16 524.739 216.885 525.261 216.334C525.784 215.783 526.045 214.929 526.045 213.772V208.2H527.053V213.814C527.053 215.223 526.694 216.287 525.975 217.006C525.266 217.725 524.286 218.084 523.035 218.084ZM533.717 210.58C534.314 210.58 534.837 210.697 535.285 210.93C535.742 211.154 536.097 211.499 536.349 211.966C536.61 212.433 536.741 213.021 536.741 213.73V218H535.747V213.828C535.747 213.053 535.551 212.47 535.159 212.078C534.776 211.677 534.235 211.476 533.535 211.476C533.012 211.476 532.555 211.583 532.163 211.798C531.78 212.003 531.482 212.307 531.267 212.708C531.062 213.1 530.959 213.576 530.959 214.136V218H529.965V210.65H530.917V212.666L530.763 212.288C530.996 211.756 531.37 211.341 531.883 211.042C532.396 210.734 533.008 210.58 533.717 210.58ZM542.352 218.07C541.652 218.07 541.022 217.911 540.462 217.594C539.911 217.277 539.477 216.838 539.16 216.278C538.843 215.709 538.684 215.055 538.684 214.318C538.684 213.571 538.843 212.918 539.16 212.358C539.477 211.798 539.911 211.364 540.462 211.056C541.022 210.739 541.652 210.58 542.352 210.58C542.996 210.58 543.57 210.725 544.074 211.014C544.587 211.303 544.993 211.728 545.292 212.288C545.6 212.839 545.754 213.515 545.754 214.318C545.754 215.111 545.605 215.788 545.306 216.348C545.007 216.908 544.601 217.337 544.088 217.636C543.584 217.925 543.005 218.07 542.352 218.07ZM542.422 217.188C542.945 217.188 543.411 217.071 543.822 216.838C544.242 216.595 544.569 216.259 544.802 215.83C545.045 215.391 545.166 214.887 545.166 214.318C545.166 213.739 545.045 213.235 544.802 212.806C544.569 212.377 544.242 212.045 543.822 211.812C543.411 211.569 542.945 211.448 542.422 211.448C541.909 211.448 541.447 211.569 541.036 211.812C540.625 212.045 540.299 212.377 540.056 212.806C539.813 213.235 539.692 213.739 539.692 214.318C539.692 214.887 539.813 215.391 540.056 215.83C540.299 216.259 540.625 216.595 541.036 216.838C541.447 217.071 541.909 217.188 542.422 217.188ZM545.194 218V215.788L545.292 214.304L545.152 212.82V207.612H546.146V218H545.194ZM552.036 218.07C551.271 218.07 550.599 217.911 550.02 217.594C549.442 217.267 548.989 216.824 548.662 216.264C548.336 215.695 548.172 215.046 548.172 214.318C548.172 213.59 548.326 212.946 548.634 212.386C548.952 211.826 549.381 211.387 549.922 211.07C550.473 210.743 551.089 210.58 551.77 210.58C552.461 210.58 553.072 210.739 553.604 211.056C554.146 211.364 554.57 211.803 554.878 212.372C555.186 212.932 555.34 213.581 555.34 214.318C555.34 214.365 555.336 214.416 555.326 214.472C555.326 214.519 555.326 214.57 555.326 214.626H548.928V213.884H554.794L554.402 214.178C554.402 213.646 554.286 213.175 554.052 212.764C553.828 212.344 553.52 212.017 553.128 211.784C552.736 211.551 552.284 211.434 551.77 211.434C551.266 211.434 550.814 211.551 550.412 211.784C550.011 212.017 549.698 212.344 549.474 212.764C549.25 213.184 549.138 213.665 549.138 214.206V214.36C549.138 214.92 549.26 215.415 549.502 215.844C549.754 216.264 550.1 216.595 550.538 216.838C550.986 217.071 551.495 217.188 552.064 217.188C552.512 217.188 552.928 217.109 553.31 216.95C553.702 216.791 554.038 216.549 554.318 216.222L554.878 216.866C554.552 217.258 554.141 217.557 553.646 217.762C553.161 217.967 552.624 218.07 552.036 218.07ZM557.364 218V210.65H558.316V212.652L558.218 212.302C558.423 211.742 558.768 211.317 559.254 211.028C559.739 210.729 560.341 210.58 561.06 210.58V211.546C561.022 211.546 560.985 211.546 560.948 211.546C560.91 211.537 560.873 211.532 560.836 211.532C560.061 211.532 559.454 211.77 559.016 212.246C558.577 212.713 558.358 213.38 558.358 214.248V218H557.364ZM564.929 218.07C564.323 218.07 563.749 217.986 563.207 217.818C562.666 217.641 562.241 217.421 561.933 217.16L562.381 216.376C562.68 216.6 563.063 216.796 563.529 216.964C563.996 217.123 564.486 217.202 564.999 217.202C565.699 217.202 566.203 217.095 566.511 216.88C566.819 216.656 566.973 216.362 566.973 215.998C566.973 215.727 566.885 215.517 566.707 215.368C566.539 215.209 566.315 215.093 566.035 215.018C565.755 214.934 565.443 214.864 565.097 214.808C564.752 214.752 564.407 214.687 564.061 214.612C563.725 214.537 563.417 214.43 563.137 214.29C562.857 214.141 562.629 213.94 562.451 213.688C562.283 213.436 562.199 213.1 562.199 212.68C562.199 212.279 562.311 211.919 562.535 211.602C562.759 211.285 563.086 211.037 563.515 210.86C563.954 210.673 564.486 210.58 565.111 210.58C565.587 210.58 566.063 210.645 566.539 210.776C567.015 210.897 567.407 211.061 567.715 211.266L567.281 212.064C566.955 211.84 566.605 211.681 566.231 211.588C565.858 211.485 565.485 211.434 565.111 211.434C564.449 211.434 563.959 211.551 563.641 211.784C563.333 212.008 563.179 212.297 563.179 212.652C563.179 212.932 563.263 213.151 563.431 213.31C563.609 213.469 563.837 213.595 564.117 213.688C564.407 213.772 564.719 213.842 565.055 213.898C565.401 213.954 565.741 214.024 566.077 214.108C566.423 214.183 566.735 214.29 567.015 214.43C567.305 214.561 567.533 214.752 567.701 215.004C567.879 215.247 567.967 215.569 567.967 215.97C567.967 216.399 567.846 216.773 567.603 217.09C567.37 217.398 567.025 217.641 566.567 217.818C566.119 217.986 565.573 218.07 564.929 218.07ZM572.115 218.07C571.425 218.07 570.893 217.883 570.519 217.51C570.146 217.137 569.959 216.609 569.959 215.928V209.026H570.953V215.872C570.953 216.301 571.061 216.633 571.275 216.866C571.499 217.099 571.817 217.216 572.227 217.216C572.666 217.216 573.03 217.09 573.319 216.838L573.669 217.552C573.473 217.729 573.235 217.86 572.955 217.944C572.685 218.028 572.405 218.07 572.115 218.07ZM568.643 211.476V210.65H573.193V211.476H568.643ZM580.085 218V216.376L580.043 216.11V213.394C580.043 212.769 579.865 212.288 579.511 211.952C579.165 211.616 578.647 211.448 577.957 211.448C577.481 211.448 577.028 211.527 576.599 211.686C576.169 211.845 575.805 212.055 575.507 212.316L575.059 211.574C575.432 211.257 575.88 211.014 576.403 210.846C576.925 210.669 577.476 210.58 578.055 210.58C579.007 210.58 579.739 210.818 580.253 211.294C580.775 211.761 581.037 212.475 581.037 213.436V218H580.085ZM577.551 218.07C577 218.07 576.519 217.981 576.109 217.804C575.707 217.617 575.399 217.365 575.185 217.048C574.97 216.721 574.863 216.348 574.863 215.928C574.863 215.545 574.951 215.2 575.129 214.892C575.315 214.575 575.614 214.323 576.025 214.136C576.445 213.94 577.005 213.842 577.705 213.842H580.239V214.584H577.733C577.023 214.584 576.529 214.71 576.249 214.962C575.978 215.214 575.843 215.527 575.843 215.9C575.843 216.32 576.006 216.656 576.333 216.908C576.659 217.16 577.117 217.286 577.705 217.286C578.265 217.286 578.745 217.16 579.147 216.908C579.557 216.647 579.856 216.273 580.043 215.788L580.267 216.474C580.08 216.959 579.753 217.347 579.287 217.636C578.829 217.925 578.251 218.07 577.551 218.07ZM587.489 210.58C588.086 210.58 588.609 210.697 589.057 210.93C589.514 211.154 589.869 211.499 590.121 211.966C590.382 212.433 590.513 213.021 590.513 213.73V218H589.519V213.828C589.519 213.053 589.323 212.47 588.931 212.078C588.548 211.677 588.007 211.476 587.307 211.476C586.784 211.476 586.327 211.583 585.935 211.798C585.552 212.003 585.253 212.307 585.039 212.708C584.833 213.1 584.731 213.576 584.731 214.136V218H583.737V210.65H584.689V212.666L584.535 212.288C584.768 211.756 585.141 211.341 585.655 211.042C586.168 210.734 586.779 210.58 587.489 210.58ZM596.124 218.07C595.424 218.07 594.794 217.911 594.234 217.594C593.683 217.277 593.249 216.838 592.932 216.278C592.614 215.709 592.456 215.055 592.456 214.318C592.456 213.571 592.614 212.918 592.932 212.358C593.249 211.798 593.683 211.364 594.234 211.056C594.794 210.739 595.424 210.58 596.124 210.58C596.768 210.58 597.342 210.725 597.846 211.014C598.359 211.303 598.765 211.728 599.064 212.288C599.372 212.839 599.526 213.515 599.526 214.318C599.526 215.111 599.376 215.788 599.078 216.348C598.779 216.908 598.373 217.337 597.86 217.636C597.356 217.925 596.777 218.07 596.124 218.07ZM596.194 217.188C596.716 217.188 597.183 217.071 597.594 216.838C598.014 216.595 598.34 216.259 598.574 215.83C598.816 215.391 598.938 214.887 598.938 214.318C598.938 213.739 598.816 213.235 598.574 212.806C598.34 212.377 598.014 212.045 597.594 211.812C597.183 211.569 596.716 211.448 596.194 211.448C595.68 211.448 595.218 211.569 594.808 211.812C594.397 212.045 594.07 212.377 593.828 212.806C593.585 213.235 593.464 213.739 593.464 214.318C593.464 214.887 593.585 215.391 593.828 215.83C594.07 216.259 594.397 216.595 594.808 216.838C595.218 217.071 595.68 217.188 596.194 217.188ZM598.966 218V215.788L599.064 214.304L598.924 212.82V207.612H599.918V218H598.966ZM606.35 218V207.612H607.344V218H606.35ZM612.475 218.07C611.784 218.07 611.252 217.883 610.879 217.51C610.505 217.137 610.319 216.609 610.319 215.928V209.026H611.313V215.872C611.313 216.301 611.42 216.633 611.635 216.866C611.859 217.099 612.176 217.216 612.587 217.216C613.025 217.216 613.389 217.09 613.679 216.838L614.029 217.552C613.833 217.729 613.595 217.86 613.315 217.944C613.044 218.028 612.764 218.07 612.475 218.07ZM609.003 211.476V210.65H613.553V211.476H609.003ZM615.236 211.028L615.852 208.452L615.964 209.04C615.749 209.04 615.567 208.975 615.418 208.844C615.278 208.704 615.208 208.522 615.208 208.298C615.208 208.074 615.278 207.892 615.418 207.752C615.567 207.612 615.745 207.542 615.95 207.542C616.165 207.542 616.337 207.617 616.468 207.766C616.608 207.906 616.678 208.083 616.678 208.298C616.678 208.373 616.673 208.447 616.664 208.522C616.655 208.597 616.636 208.681 616.608 208.774C616.589 208.858 616.557 208.965 616.51 209.096L615.908 211.028H615.236ZM620.56 218.07C619.954 218.07 619.38 217.986 618.838 217.818C618.297 217.641 617.872 217.421 617.564 217.16L618.012 216.376C618.311 216.6 618.694 216.796 619.16 216.964C619.627 217.123 620.117 217.202 620.63 217.202C621.33 217.202 621.834 217.095 622.142 216.88C622.45 216.656 622.604 216.362 622.604 215.998C622.604 215.727 622.516 215.517 622.338 215.368C622.17 215.209 621.946 215.093 621.666 215.018C621.386 214.934 621.074 214.864 620.728 214.808C620.383 214.752 620.038 214.687 619.692 214.612C619.356 214.537 619.048 214.43 618.768 214.29C618.488 214.141 618.26 213.94 618.082 213.688C617.914 213.436 617.83 213.1 617.83 212.68C617.83 212.279 617.942 211.919 618.166 211.602C618.39 211.285 618.717 211.037 619.146 210.86C619.585 210.673 620.117 210.58 620.742 210.58C621.218 210.58 621.694 210.645 622.17 210.776C622.646 210.897 623.038 211.061 623.346 211.266L622.912 212.064C622.586 211.84 622.236 211.681 621.862 211.588C621.489 211.485 621.116 211.434 620.742 211.434C620.08 211.434 619.59 211.551 619.272 211.784C618.964 212.008 618.81 212.297 618.81 212.652C618.81 212.932 618.894 213.151 619.062 213.31C619.24 213.469 619.468 213.595 619.748 213.688C620.038 213.772 620.35 213.842 620.686 213.898C621.032 213.954 621.372 214.024 621.708 214.108C622.054 214.183 622.366 214.29 622.646 214.43C622.936 214.561 623.164 214.752 623.332 215.004C623.51 215.247 623.598 215.569 623.598 215.97C623.598 216.399 623.477 216.773 623.234 217.09C623.001 217.398 622.656 217.641 622.198 217.818C621.75 217.986 621.204 218.07 620.56 218.07ZM633.594 218.084C632.848 218.084 632.157 217.963 631.522 217.72C630.897 217.468 630.351 217.118 629.884 216.67C629.427 216.222 629.068 215.695 628.806 215.088C628.554 214.481 628.428 213.819 628.428 213.1C628.428 212.381 628.554 211.719 628.806 211.112C629.068 210.505 629.432 209.978 629.898 209.53C630.365 209.082 630.911 208.737 631.536 208.494C632.171 208.242 632.862 208.116 633.608 208.116C634.355 208.116 635.036 208.233 635.652 208.466C636.278 208.699 636.81 209.054 637.248 209.53L636.604 210.188C636.194 209.777 635.741 209.483 635.246 209.306C634.752 209.129 634.22 209.04 633.65 209.04C633.044 209.04 632.484 209.143 631.97 209.348C631.466 209.544 631.023 209.829 630.64 210.202C630.267 210.566 629.973 210.995 629.758 211.49C629.553 211.975 629.45 212.512 629.45 213.1C629.45 213.679 629.553 214.215 629.758 214.71C629.973 215.205 630.267 215.639 630.64 216.012C631.023 216.376 631.466 216.661 631.97 216.866C632.484 217.062 633.039 217.16 633.636 217.16C634.196 217.16 634.724 217.076 635.218 216.908C635.722 216.74 636.184 216.455 636.604 216.054L637.192 216.838C636.726 217.249 636.18 217.561 635.554 217.776C634.929 217.981 634.276 218.084 633.594 218.084ZM636.198 216.712V213.1H637.192V216.838L636.198 216.712ZM642.91 218.07C642.201 218.07 641.562 217.911 640.992 217.594C640.432 217.267 639.989 216.824 639.662 216.264C639.336 215.695 639.172 215.046 639.172 214.318C639.172 213.581 639.336 212.932 639.662 212.372C639.989 211.812 640.432 211.373 640.992 211.056C641.552 210.739 642.192 210.58 642.91 210.58C643.638 210.58 644.282 210.739 644.842 211.056C645.412 211.373 645.855 211.812 646.172 212.372C646.499 212.932 646.662 213.581 646.662 214.318C646.662 215.046 646.499 215.695 646.172 216.264C645.855 216.824 645.412 217.267 644.842 217.594C644.273 217.911 643.629 218.07 642.91 218.07ZM642.91 217.188C643.442 217.188 643.914 217.071 644.324 216.838C644.735 216.595 645.057 216.259 645.29 215.83C645.533 215.391 645.654 214.887 645.654 214.318C645.654 213.739 645.533 213.235 645.29 212.806C645.057 212.377 644.735 212.045 644.324 211.812C643.914 211.569 643.447 211.448 642.924 211.448C642.402 211.448 641.935 211.569 641.524 211.812C641.114 212.045 640.787 212.377 640.544 212.806C640.302 213.235 640.18 213.739 640.18 214.318C640.18 214.887 640.302 215.391 640.544 215.83C640.787 216.259 641.114 216.595 641.524 216.838C641.935 217.071 642.397 217.188 642.91 217.188ZM651.618 218.07C650.918 218.07 650.288 217.911 649.728 217.594C649.177 217.277 648.743 216.838 648.426 216.278C648.108 215.709 647.95 215.055 647.95 214.318C647.95 213.571 648.108 212.918 648.426 212.358C648.743 211.798 649.177 211.364 649.728 211.056C650.288 210.739 650.918 210.58 651.618 210.58C652.262 210.58 652.836 210.725 653.34 211.014C653.853 211.303 654.259 211.728 654.558 212.288C654.866 212.839 655.02 213.515 655.02 214.318C655.02 215.111 654.87 215.788 654.572 216.348C654.273 216.908 653.867 217.337 653.354 217.636C652.85 217.925 652.271 218.07 651.618 218.07ZM651.688 217.188C652.21 217.188 652.677 217.071 653.088 216.838C653.508 216.595 653.834 216.259 654.068 215.83C654.31 215.391 654.432 214.887 654.432 214.318C654.432 213.739 654.31 213.235 654.068 212.806C653.834 212.377 653.508 212.045 653.088 211.812C652.677 211.569 652.21 211.448 651.688 211.448C651.174 211.448 650.712 211.569 650.302 211.812C649.891 212.045 649.564 212.377 649.322 212.806C649.079 213.235 648.958 213.739 648.958 214.318C648.958 214.887 649.079 215.391 649.322 215.83C649.564 216.259 649.891 216.595 650.302 216.838C650.712 217.071 651.174 217.188 651.688 217.188ZM654.46 218V215.788L654.558 214.304L654.418 212.82V207.612H655.412V218H654.46ZM660.154 218.07C659.547 218.07 658.973 217.986 658.432 217.818C657.891 217.641 657.466 217.421 657.158 217.16L657.606 216.376C657.905 216.6 658.287 216.796 658.754 216.964C659.221 217.123 659.711 217.202 660.224 217.202C660.924 217.202 661.428 217.095 661.736 216.88C662.044 216.656 662.198 216.362 662.198 215.998C662.198 215.727 662.109 215.517 661.932 215.368C661.764 215.209 661.54 215.093 661.26 215.018C660.98 214.934 660.667 214.864 660.322 214.808C659.977 214.752 659.631 214.687 659.286 214.612C658.95 214.537 658.642 214.43 658.362 214.29C658.082 214.141 657.853 213.94 657.676 213.688C657.508 213.436 657.424 213.1 657.424 212.68C657.424 212.279 657.536 211.919 657.76 211.602C657.984 211.285 658.311 211.037 658.74 210.86C659.179 210.673 659.711 210.58 660.336 210.58C660.812 210.58 661.288 210.645 661.764 210.776C662.24 210.897 662.632 211.061 662.94 211.266L662.506 212.064C662.179 211.84 661.829 211.681 661.456 211.588C661.083 211.485 660.709 211.434 660.336 211.434C659.673 211.434 659.183 211.551 658.866 211.784C658.558 212.008 658.404 212.297 658.404 212.652C658.404 212.932 658.488 213.151 658.656 213.31C658.833 213.469 659.062 213.595 659.342 213.688C659.631 213.772 659.944 213.842 660.28 213.898C660.625 213.954 660.966 214.024 661.302 214.108C661.647 214.183 661.96 214.29 662.24 214.43C662.529 214.561 662.758 214.752 662.926 215.004C663.103 215.247 663.192 215.569 663.192 215.97C663.192 216.399 663.071 216.773 662.828 217.09C662.595 217.398 662.249 217.641 661.792 217.818C661.344 217.986 660.798 218.07 660.154 218.07Z" fill="#414141"/>
<path d="M291.673 158.093H301.785V175.757C296.238 179.597 290.009 181.517 283.097 181.517C276.27 181.517 270.553 179.32 265.945 174.925C261.38 170.573 259.097 165.133 259.097 158.605C259.097 152.077 261.444 146.637 266.137 142.285C270.873 137.976 276.782 135.821 283.865 135.821C291.161 135.821 297.305 138.04 302.297 142.477L295.641 150.669C292.142 147.384 288.196 145.741 283.801 145.741C280.174 145.741 277.166 146.978 274.777 149.453C272.345 151.885 271.129 154.936 271.129 158.605C271.129 162.274 272.345 165.346 274.777 167.821C277.252 170.296 280.302 171.533 283.929 171.533C286.276 171.533 288.857 170.829 291.673 169.421V158.093ZM330.916 135.821C337.87 135.821 343.652 137.976 348.26 142.285C352.868 146.637 355.172 152.056 355.172 158.541C355.172 165.112 352.868 170.573 348.26 174.925C343.652 179.32 337.87 181.517 330.916 181.517C323.961 181.517 318.18 179.32 313.572 174.925C308.964 170.573 306.66 165.112 306.66 158.541C306.66 152.013 308.964 146.594 313.572 142.285C318.18 137.976 323.961 135.821 330.916 135.821ZM331.044 145.805C327.63 145.805 324.729 147.021 322.34 149.453C319.908 151.928 318.692 154.978 318.692 158.605C318.692 162.232 319.929 165.304 322.404 167.821C324.793 170.296 327.673 171.533 331.044 171.533C334.414 171.533 337.273 170.296 339.62 167.821C341.966 165.304 343.14 162.232 343.14 158.605C343.14 154.978 341.966 151.928 339.62 149.453C337.273 147.021 334.414 145.805 331.044 145.805ZM380.305 136.141C387.388 136.141 393.148 138.21 397.585 142.349C401.98 146.488 404.177 151.885 404.177 158.541C404.177 165.24 401.937 170.658 397.457 174.797C392.977 178.936 387.11 181.005 379.857 181.005H360.977V136.141H380.305ZM380.625 171.533C384.038 171.533 386.812 170.338 388.945 167.949C391.121 165.602 392.209 162.509 392.209 158.669C392.209 154.829 391.078 151.693 388.817 149.261C386.556 146.872 383.633 145.677 380.049 145.677H372.689V171.533H380.625ZM421.689 136.141V154.445H439.801V136.141H451.513V181.005H439.801V163.789H421.689V181.005H409.977V136.141H421.689ZM481.603 135.821C488.558 135.821 494.339 137.976 498.947 142.285C503.555 146.637 505.859 152.056 505.859 158.541C505.859 165.112 503.555 170.573 498.947 174.925C494.339 179.32 488.558 181.517 481.603 181.517C474.648 181.517 468.867 179.32 464.259 174.925C459.651 170.573 457.347 165.112 457.347 158.541C457.347 152.013 459.651 146.594 464.259 142.285C468.867 137.976 474.648 135.821 481.603 135.821ZM481.731 145.805C478.318 145.805 475.416 147.021 473.027 149.453C470.595 151.928 469.379 154.978 469.379 158.605C469.379 162.232 470.616 165.304 473.091 167.821C475.48 170.296 478.36 171.533 481.731 171.533C485.102 171.533 487.96 170.296 490.307 167.821C492.654 165.304 493.827 162.232 493.827 158.605C493.827 154.978 492.654 151.928 490.307 149.453C487.96 147.021 485.102 145.805 481.731 145.805ZM532.291 135.821C539.245 135.821 545.027 137.976 549.635 142.285C554.243 146.637 556.547 152.056 556.547 158.541C556.547 165.112 554.243 170.573 549.635 174.925C545.027 179.32 539.245 181.517 532.291 181.517C525.336 181.517 519.555 179.32 514.947 174.925C510.339 170.573 508.035 165.112 508.035 158.541C508.035 152.013 510.339 146.594 514.947 142.285C519.555 137.976 525.336 135.821 532.291 135.821ZM532.419 145.805C529.005 145.805 526.104 147.021 523.715 149.453C521.283 151.928 520.067 154.978 520.067 158.605C520.067 162.232 521.304 165.304 523.779 167.821C526.168 170.296 529.048 171.533 532.419 171.533C535.789 171.533 538.648 170.296 540.995 167.821C543.341 165.304 544.515 162.232 544.515 158.605C544.515 154.978 543.341 151.928 540.995 149.453C538.648 147.021 535.789 145.805 532.419 145.805ZM581.68 136.141C588.763 136.141 594.523 138.21 598.96 142.349C603.355 146.488 605.552 151.885 605.552 158.541C605.552 165.24 603.312 170.658 598.832 174.797C594.352 178.936 588.485 181.005 581.232 181.005H562.352V136.141H581.68ZM582 171.533C585.413 171.533 588.187 170.338 590.32 167.949C592.496 165.602 593.584 162.509 593.584 158.669C593.584 154.829 592.453 151.693 590.192 149.261C587.931 146.872 585.008 145.677 581.424 145.677H574.064V171.533H582Z" fill="white"/>
</svg>
