<?xml version="1.0" encoding="UTF-8"?>
<!DOCTYPE svg PUBLIC "-//W3C//DTD SVG 1.1//EN" "http://www.w3.org/Graphics/SVG/1.1/DTD/svg11.dtd">
<!-- Creator: CorelDRAW -->
<svg xmlns="http://www.w3.org/2000/svg" xml:space="preserve" width="49.0643mm" height="35.2778mm" version="1.1" style="shape-rendering:geometricPrecision; text-rendering:geometricPrecision; image-rendering:optimizeQuality; fill-rule:evenodd; clip-rule:evenodd"
viewBox="0 0 61.2 44"
 xmlns:xlink="http://www.w3.org/1999/xlink"
 xmlns:xodm="http://www.corel.com/coreldraw/odm/2003">
 <defs>
  <style type="text/css">
   <![CDATA[
    .fil0 {fill:#FEFEFE;fill-rule:nonzero}
   ]]>
  </style>
 </defs>
 <g id="nft_x0020_1">
  <metadata id="CorelCorpID_0Corel-Layer"/>
  <path class="fil0" d="M5.54 44l-4.71 0 -0.84 0 0 -0.84 0 -42.33 0 -0.84 0.84 0 5.63 0 0.66 0 0.13 0.62 4.97 23.72 0 -23.5 0 -0.84 0.84 0 4.71 0 0.79 0 0 0.84 0 42.33 0 0.84 -0.79 0 -5.68 0 -0.62 0 -0.18 -0.62 -4.97 -21.74 0 21.52 0 0.84 -0.79 0zm24.75 -37.62l0 9.02 7.35 0 0.84 0 0 0.79 0 4.84 0 0.79 -0.84 0 -7.35 0 0 21.34 0 0.84 -0.84 0 -4.66 0 -0.84 0 0 -0.84 0 -42.33 0 -0.84 0.84 0 14.21 0.04 0 0.79 0 4.71 0 0.84 -0.53 0 -8.18 0zm30.07 -6.34l0.84 0 0 0.79 0 4.71 0 0.79 -0.84 0 -4.84 0 0 36.83 0 0.84 -0.79 0 -4.71 0 -0.84 0 0 -0.84 0 -36.83 -4.8 0 -0.84 0 0 -0.79 0 -4.71 0 -0.84 0.84 0 15.97 0.04z"/>
 </g>
</svg>
